<svg xmlns="http://www.w3.org/2000/svg" viewBox="0 0 48 48" fill="none">
  <!-- Uber-style top-down white car. Points UP (north = 0°). -->
  <defs>
    <filter id="ds" x="-30%" y="-20%" width="160%" height="160%">
      <feDropShadow dx="0" dy="1" stdDeviation="2" flood-color="#000" flood-opacity="0.4"/>
    </filter>
  </defs>

  <g filter="url(#ds)">
    <!-- Car body -->
    <path d="
      M 15.5 15
      Q 15.5 12.5 18 12.5
      L 30 12.5
      Q 32.5 12.5 32.5 15
      L 34 17
      L 36 21
      L 36 31
      Q 36 33 34 33
      L 14 33
      Q 12 33 12 31
      L 12 21
      L 14 17
      Z
    " fill="#FFFFFF" stroke="#E0E0E0" stroke-width="0.3"/>

    <!-- Windshield -->
    <path d="M 17.5 14.5 L 17.5 19 L 20 21 L 28 21 L 30.5 19 L 30.5 14.5 Z" fill="#90CAF9" opacity="0.8"/>

    <!-- Windshield glare -->
    <path d="M 18.5 14.5 L 18.5 18.5 L 20.5 20.5 L 24 20.5 L 24 14.5 Z" fill="#FFFFFF" opacity="0.25"/>

    <!-- Rear window -->
    <path d="M 19 27 L 29 27 L 30.5 30 L 29 32 L 19 32 L 17.5 30 Z" fill="#90CAF9" opacity="0.5"/>

    <!-- Roof -->
    <rect x="18" y="21" width="12" height="6" rx="0.6" fill="#F5F5F5"/>

    <!-- Left headlight -->
    <rect x="12.5" y="18.5" width="2.5" height="1.8" rx="0.6" fill="#FFD54F"/>
    <!-- Right headlight -->
    <rect x="33" y="18.5" width="2.5" height="1.8" rx="0.6" fill="#FFD54F"/>

    <!-- Left taillight -->
    <rect x="12.5" y="30.5" width="2.5" height="1.5" rx="0.5" fill="#EF5350"/>
    <!-- Right taillight -->
    <rect x="33" y="30.5" width="2.5" height="1.5" rx="0.5" fill="#EF5350"/>
  </g>
</svg>